<svg fill="none" height="20" viewBox="0 0 20 20" width="20" xmlns="http://www.w3.org/2000/svg"><g fill="#212121"><path d="m17.25 5c.4142 0 .75.33579.75.75s-.3358.75-.75.75h-14.5c-.41421 0-.75-.33579-.75-.75s.33578-.75.75-.75z"/><path d="m17.25 8c.4142 0 .75.33579.75.75s-.3358.75-.75.75h-.4555c-.6984-.321-1.4755-.5-2.2945-.5s-1.5961.179-2.2945.5h-9.4555c-.41421 0-.75-.33579-.75-.75s.33578-.75.75-.75z"/><path d="m2.75 15.5h6.34069c-.05957-.3243-.09069-.6585-.09069-1 0-.1685.00758-.3353.02242-.5h-6.27242c-.41422 0-.75.3358-.75.75s.33579.75.75.75z"/><path d="m2.75 12.5h6.62494c.2141-.5482.51363-1.0537.88226-1.5h-7.5072c-.41422 0-.75.3358-.75.75s.33579.75.75.75z"/><path d="m10 14.5c0 2.4853 2.0147 4.5 4.5 4.5s4.5-2.0147 4.5-4.5-2.0147-4.5-4.5-4.5-4.5 2.0147-4.5 4.5zm4.1464-2.3536c.1953-.1952.5119-.1952.7072 0 .1952.1953.1952.5119 0 .7072l-1.1465 1.1464h2.7929c.2761 0 .5.2239.5.5s-.2239.5-.5.5h-2.7929l1.1465 1.1464c.1952.1953.1952.5119 0 .7072-.1953.1952-.5119.1952-.7072 0l-2-2c-.0479-.048-.0841-.1032-.1085-.1622-.024-.0581-.0375-.1217-.0379-.1884v-.003-.003c.0004-.0667.0139-.1303.0379-.1884.0241-.0581.0595-.1126.1064-.16l.0025-.0026z"/></g></svg>