<svg viewBox="0 0 64 64" xmlns="http://www.w3.org/2000/svg"><path d="m14.1 45.6 1.8-1.8-10.1-9.9-1.8 1.8zm4.8-4.8 1.9-1.8-10.1-9.9-1.9 1.8zm-5.2-14.6 10.1 9.8 1.8-1.7-10.1-9.9zm19 32.2-13.8-13.5-3.7 3.6 13.9 13.5zm4.9-4.7-13.9-13.6-3.6 3.6 13.8 13.5zm4.9-4.8-13.9-13.5-3.6 3.5 13.8 13.6z" fill="#f2b200"/><g fill="#ffce31"><path d="m18.9 44.9-8.8-8.6-3.6 3.6 8.7 8.6zm-3.9-13.3-3.6 3.6 8.7 8.5 3.6-3.6zm4.8-4.8-3.6 3.6 8.8 8.5 3.6-3.5zm-12 7.2-3.7 3.6-2.1-2.1 3.7-3.5zm4.8-4.7-3.6 3.5-2.1-2 3.6-3.6zm4.9-4.8-3.6 3.6-2.2-2.1 3.7-3.6z"/><path d="m39.3 48-11.2 10.9c-3.8 3.7-9.9 3.7-13.7 0a9.3 9.3 0 0 1 0-13.4l11.2-10.9c3.8-3.7 9.9-3.7 13.7 0s3.8 9.7 0 13.4m-21.8.6c-2 2-2 5.3 0 7.3s5.4 2 7.4 0l11.2-10.9c2-2 2-5.3 0-7.3s-5.4-2-7.4 0z"/><path d="m26.3 32.7c-7.7 7.6-15.3 15-17.9 17.5-1.7 1.7-1.7 3.2-1.7 3.2l2.7 2.6s1.5.1 3.2-1.6c2.6-2.5 10.2-10 17.9-17.5 10.2-10 30.7-3.4 30.7-3.4l-31.4-30.5s6.7 19.7-3.5 29.7"/></g><g fill="#f2b200"><path d="m9.2 54.1s1.8.3 3.5-1.4c2.6-2.5 10.4-9.7 18.2-17.3 10.2-10 30.3-3.5 30.3-3.5s-16.2-12.8-30.8 1.4c-11.9 11.7-21.2 20.8-21.2 20.8zm-5.7.9 4.3 4.2c1.7-1.8 1.6-3.2 1.6-3.2l-2.7-2.6s-1.5-.1-3.2 1.6"/><path d="m30.1 2.3c-1.9 1.9 3.6 10.3 12.3 18.8s17.3 13.9 19.2 12-4.3-9.6-13-18.1c-8.7-8.4-16.5-14.5-18.5-12.7"/></g><path d="m43 20.5c7.8 7.6 15.5 12.6 17.1 11s-4.2-8.3-12-16c-7.9-7.5-14.8-13.2-16.4-11.6-1.6 1.5 3.5 9 11.3 16.6" fill="#333"/></svg>